<svg width="38" height="38" viewBox="0 0 38 38" fill="none" xmlns="http://www.w3.org/2000/svg">
<rect x="9.55554" y="9.78003" width="18.3595" height="18.3595" rx="9.17975" fill="#FF364E"/>
<path d="M21.0405 21.9232L15.7717 16.6544C15.5916 16.4744 15.5916 16.1758 15.7717 15.9958C15.9517 15.8158 16.2503 15.8158 16.4303 15.9958L21.6991 21.2646C21.8791 21.4447 21.8791 21.7432 21.6991 21.9232C21.5191 22.1033 21.2205 22.1033 21.0405 21.9232Z" fill="#FACFCF"/>
<path d="M15.7714 21.9232C15.5913 21.7432 15.5913 21.4447 15.7714 21.2646L21.0402 15.9958C21.2202 15.8158 21.5188 15.8158 21.6988 15.9958C21.8788 16.1758 21.8788 16.4744 21.6988 16.6544L16.43 21.9232C16.2499 22.1033 15.9514 22.1033 15.7714 21.9232Z" fill="#FACFCF"/>
</svg>
