<svg width="30" height="30" viewBox="0 0 30 30" fill="none" xmlns="http://www.w3.org/2000/svg">
<circle cx="14.7554" cy="14.9604" r="14.4692" fill="#0ABCB2"/>
<path fill-rule="evenodd" clip-rule="evenodd" d="M20.5025 19.3289C20.1345 20.4472 18.6926 21.0052 17.6624 20.9122C16.2555 20.7851 14.7246 20.0387 13.5625 19.2168C11.8543 18.0086 10.2542 16.1398 9.32185 14.1567C8.66291 12.7553 8.51506 11.032 9.49513 9.75467C9.85759 9.28251 10.2503 9.03054 10.8385 9.00113C11.6556 8.96139 11.77 9.42877 12.0506 10.1569C12.2597 10.7014 12.5387 11.257 12.6945 11.8213C12.9862 12.8745 11.9664 12.9182 11.8376 13.7791C11.7581 14.322 12.4155 15.0501 12.7128 15.4372C13.2858 16.1911 13.9876 16.8377 14.7858 17.3473C15.2389 17.6326 15.9685 18.1469 16.4868 17.8631C17.2849 17.4259 17.2101 16.0802 18.3253 16.5357C18.9032 16.771 19.4628 17.1104 20.0144 17.4077C20.8673 17.8663 20.8276 18.3416 20.5025 19.3289C20.7457 18.5912 20.2592 20.0665 20.5025 19.3289Z" fill="white"/>
</svg>
