<svg width="43" height="43" viewBox="0 0 43 43" fill="none" xmlns="http://www.w3.org/2000/svg">
<circle cx="21.33" cy="21.2705" r="21.2265" fill="#D0D0D0"/>
<path fill-rule="evenodd" clip-rule="evenodd" d="M21.3238 11.1221L11.188 15.3339V18.2575H13.183V31.4186H29.477V18.2575H31.472V15.3339L21.3238 11.1221Z" fill="#2B4255"/>
<path d="M15.1234 20.9746H27.5364V31.4188H15.1234V20.9746Z" fill="#576D7E"/>
<path d="M15.0952 18.2871H18.3765V19.5996H15.0952V18.2871ZM24.2827 18.2871H27.564V19.5996H24.2827V18.2871ZM19.689 18.2871H22.9702V19.5996H19.689V18.2871Z" fill="#F8B84E"/>
<path d="M17.064 24.8496H20.3452V28.1309H17.064V24.8496ZM17.064 28.1309H20.3452V31.4121H17.064V28.1309ZM21.6577 28.1309H24.939V31.4121H21.6577V28.1309Z" fill="#FCD062"/>
<path d="M17.064 27.4814H20.3452V28.1311H17.064V27.4814ZM17.064 30.7627H20.3452V31.4124H17.064V30.7627ZM21.6577 30.7627H24.939V31.4124H21.6577V30.7627Z" fill="#F8B84E"/>
</svg>
