<svg width="18" height="13" viewBox="0 0 18 13" fill="none" xmlns="http://www.w3.org/2000/svg">
<path d="M10.9764 12.9022C11.1506 12.9022 11.3247 12.838 11.4622 12.7006L17.0254 7.13736C17.2912 6.87157 17.2912 6.43164 17.0254 6.16586L11.4622 0.602661C11.1964 0.336873 10.7565 0.336873 10.4906 0.602661C10.2248 0.868449 10.2248 1.30837 10.4906 1.57416L15.5681 6.65161L10.4906 11.7291C10.2248 11.9949 10.2248 12.4348 10.4906 12.7006C10.619 12.838 10.8023 12.9022 10.9764 12.9022Z" fill="#5F6C7B"/>
<path d="M0.95858 7.33888H16.3834C16.7592 7.33888 17.0708 7.02726 17.0708 6.65149C17.0708 6.27572 16.7592 5.96411 16.3834 5.96411H0.95858C0.582811 5.96411 0.271198 6.27572 0.271198 6.65149C0.271198 7.02726 0.582811 7.33888 0.95858 7.33888Z" fill="#5F6C7B"/>
</svg>
