<svg width="24" height="18" viewBox="0 0 24 18" fill="none" xmlns="http://www.w3.org/2000/svg">
<path d="M8.87029 17.5289C8.62608 17.5289 8.38186 17.439 8.18906 17.2462L0.386985 9.44408C0.0142341 9.07133 0.0142341 8.45436 0.386985 8.08161L8.18906 0.279564C8.56181 -0.0931878 9.17878 -0.0931878 9.55159 0.279564C9.92434 0.652315 9.92434 1.26928 9.55159 1.64203L2.43069 8.76285L9.55159 15.8837C9.92434 16.2564 9.92434 16.8734 9.55159 17.2462C9.37158 17.439 9.11451 17.5289 8.87029 17.5289Z" fill="#292D32"/>
<path d="M22.9197 9.72685H1.28725C0.760261 9.72685 0.323242 9.28983 0.323242 8.76284C0.323242 8.23585 0.760261 7.79883 1.28725 7.79883H22.9197C23.4467 7.79883 23.8837 8.23585 23.8837 8.76284C23.8837 9.28983 23.4467 9.72685 22.9197 9.72685Z" fill="#292D32"/>
</svg>
