<svg width="80" height="76" viewBox="0 0 80 76" fill="none" xmlns="http://www.w3.org/2000/svg">
<circle cx="37.6575" cy="37.7083" r="37.6575" fill="#F3F3F3"/>
<path d="M50.2825 40.8851L48.5405 37.9867C48.155 37.3547 47.8159 36.1367 47.8159 35.3967V32.5138C47.8159 26.9175 43.268 22.3696 37.6871 22.3696C32.0909 22.385 27.543 26.9175 27.543 32.5138V35.3813C27.543 36.1213 27.2038 37.3392 26.8338 37.9713L25.0918 40.8697C24.4288 41.9951 24.2747 43.2747 24.6909 44.3847C25.1072 45.5101 26.0476 46.4042 27.2809 46.8051C28.9459 47.3601 30.6263 47.7609 32.3376 48.0538C32.5072 48.0847 32.6768 48.1001 32.8463 48.1309C33.0622 48.1617 33.2934 48.1926 33.5247 48.2234C33.9255 48.2851 34.3263 48.3313 34.7425 48.3622C35.7138 48.4547 36.7005 48.5009 37.6871 48.5009C38.6584 48.5009 39.6296 48.4547 40.5855 48.3622C40.94 48.3313 41.2946 48.3005 41.6338 48.2542C41.9113 48.2234 42.1888 48.1926 42.4663 48.1463C42.6359 48.1309 42.8055 48.1001 42.975 48.0692C44.7017 47.7917 46.413 47.3601 48.078 46.8051C49.265 46.4042 50.1746 45.5101 50.6063 44.3692C51.038 43.213 50.9146 41.9488 50.2825 40.8851ZM38.8125 34.6259C38.8125 35.2734 38.2884 35.7976 37.6409 35.7976C36.9934 35.7976 36.4692 35.2734 36.4692 34.6259V29.8467C36.4692 29.1992 36.9934 28.675 37.6409 28.675C38.2884 28.675 38.8125 29.1992 38.8125 29.8467V34.6259Z" fill="#898A8D"/>
<path d="M42.02 50.0567C41.3725 51.845 39.6612 53.1246 37.6571 53.1246C36.4391 53.1246 35.2366 52.6313 34.3887 51.7525C33.8954 51.29 33.5254 50.6733 33.3095 50.0413C33.51 50.0721 33.7104 50.0875 33.9262 50.1183C34.2808 50.1646 34.6508 50.2108 35.0208 50.2417C35.8996 50.3188 36.7937 50.365 37.6879 50.365C38.5666 50.365 39.4454 50.3188 40.3087 50.2417C40.6325 50.2108 40.9562 50.1954 41.2646 50.1492C41.5112 50.1183 41.7579 50.0875 42.02 50.0567Z" fill="#898A8D"/>
<rect x="50.9" y="1.05078" width="27.2523" height="27.2523" rx="13.6262" fill="#FF364E" stroke="white" stroke-width="2"/>
<path d="M68.1986 19.3993L59.8037 11.0045C59.5169 10.7176 59.5169 10.2419 59.8037 9.9551C60.0905 9.66827 60.5663 9.66827 60.8531 9.9551L69.2479 18.35C69.5348 18.6368 69.5348 19.1125 69.2479 19.3993C68.9611 19.6861 68.4854 19.6861 68.1986 19.3993Z" fill="white"/>
<path d="M59.8038 19.3993C59.517 19.1125 59.517 18.6368 59.8038 18.35L68.1986 9.9551C68.4855 9.66827 68.9612 9.66827 69.248 9.9551C69.5348 10.2419 69.5348 10.7176 69.248 11.0045L60.8531 19.3993C60.5663 19.6861 60.0906 19.6861 59.8038 19.3993Z" fill="white"/>
</svg>
