<svg width="25" height="25" viewBox="0 0 25 25" fill="none" xmlns="http://www.w3.org/2000/svg">
<path d="M17.2227 21.9033H7.22266C3.57266 21.9033 1.47266 19.8033 1.47266 16.1533V9.15332C1.47266 5.50332 3.57266 3.40332 7.22266 3.40332H17.2227C20.8727 3.40332 22.9727 5.50332 22.9727 9.15332V16.1533C22.9727 19.8033 20.8727 21.9033 17.2227 21.9033ZM7.22266 4.90332C4.36266 4.90332 2.97266 6.29332 2.97266 9.15332V16.1533C2.97266 19.0133 4.36266 20.4033 7.22266 20.4033H17.2227C20.0827 20.4033 21.4727 19.0133 21.4727 16.1533V9.15332C21.4727 6.29332 20.0827 4.90332 17.2227 4.90332H7.22266Z" fill="white"/>
<path d="M12.2215 13.5233C11.3815 13.5233 10.5315 13.2633 9.88146 12.7333L6.75146 10.2333C6.43146 9.97329 6.37147 9.50329 6.63146 9.18329C6.89147 8.86329 7.36146 8.80329 7.68146 9.06329L10.8115 11.5633C11.5715 12.1733 12.8615 12.1733 13.6215 11.5633L16.7515 9.06329C17.0715 8.80329 17.5515 8.85329 17.8015 9.18329C18.0615 9.50329 18.0115 9.98329 17.6815 10.2333L14.5515 12.7333C13.9115 13.2633 13.0615 13.5233 12.2215 13.5233Z" fill="white"/>
</svg>
